<?xml version="1.0" encoding="utf-8"?>
<!DOCTYPE svg PUBLIC "-//W3C//DTD SVG 1.1//EN" "http://www.w3.org/Graphics/SVG/1.1/DTD/svg11.dtd">
<svg version="1.1" id="Signavio_Logo" xmlns="http://www.w3.org/2000/svg" xmlns:xlink="http://www.w3.org/1999/xlink" x="0px" y="0px" width="102px" height="102px" viewBox="0 0 102 102" enable-background="new 0 0 278 102" xml:space="preserve">
<g>
<rect id="bounding_box" fill="none" width="278" height="102"/>
<path id="logo_image" fill="#ad0f5b" d="M58.1,43.28L58.1,43.28L58.1,43.28zM12.437,88.57C12.437,88.57,12.435,88.572,12.437,88.57M11.464,88.993c-0.252-1.129,0.144-1.998,0.304-2.467c0.158-0.472,0.929-0.579,1.267-0.704c0.338-0.124,0.928-0.436,1.321-0.829c0.833-0.804,2.056-3.433,3.134-4.597c0.949-1.003,2.217-2.482,3.52-3.743c1.163-1.118,1.352-2.201,1.939-3.099c0.326-0.411,0.711-0.569,1.28-0.905c0.555-0.311,1.24-0.681,1.932-1.118c1.39-0.874,2.75-2.033,3.136-3.329c0.758-2.299,1.992-3.754,2.048-5.167c0.02-0.532-2.927-1.601-3.412-1.787c-0.378-0.146-0.527-0.324-0.484-0.537c0.075-0.359,0.442-0.384,2.692-0.993c5.726-1.553,13.088-5.75,15.562-7.243c2.845-1.716,9.549-6.629,10.72-7.665c1.173-1.035,1.667-1.518,1.667-1.518c0.203-0.722,0.309-5.546,0.279-8.721c-0.03-3.175,0.419-6.56,0.556-7.413c-0.232-0.343-0.426-0.675-1.089-1.921c-0.664-1.249-0.969-2.77-1.036-3.075c-0.068-0.306,0.053-0.431,0.107-0.479c0.142-0.126,0.304-0.111,0.656-0.033c0.247,0.057,1.33,0.6,2.265,0.598c-0.422-2.932-2.296-4.86-5.657-6.081c-4.526-1.645-7.827-3.642-9.082-6.068c-0.169-0.326-0.196-0.676,0.089-0.836c0.229-0.129,0.552-0.054,0.891,0.263c2.114,1.969,4.667,2.745,9.502,4.108c5.278,1.488,7.357,4.067,8.77,10.168c0,0,1.233,0.382,2.526,1.067c0.811,0.429,2.315,1.285,2.953,2.482c0.914,1.752,1.217,3.081,1.685,4.395c0.196,0.565,0.647,1.234,1.084,1.836c0.436,0.632,0.907,1.317,0.955,1.785c0.065,0.638-0.029,1.388-0.762,1.986c-0.658,0.538-0.911,0.589-1.236,0.584c-0.324-0.004-0.99-0.22-1.186-0.313c-0.221-0.105-2.709-1.225-2.663-0.887c0.05,0.337,0.518,1.172,1.078,2.255c0.561,1.083,1.328,2.121,1.947,3.265c0.695,1.285,1.222,3.071,1.498,3.862c0.058,0.166,0.16,0.235,0.23,0.278c0.107,0.062,0.217,0.058,0.357,0.056c0.851-0.007,2.41,0.008,2.984,0.021c2.639,0.055,5.549,0.203,5.895,0.235c0.698,0.066,1.254,0.465,1.525,0.944c0.269,0.481,0.269,1.321,0.081,1.613c-0.815,1.28-3.197,4.789-4.973,6.62c-1.775,1.832-6.438,6.198-8.375,7.421c-0.669,0.402-1.3,0.721-1.677,0.693c-0.591-0.045-1.129-1.516-1.214-2.103c-0.089-0.588,0.268-1.206,2.247-2.108c1.337-0.608,1.906-1.413,2.299-2.092c0.394-0.676,1.151-1.026,1.814-1.475c0.665-0.442,1.534-1.143,2.154-1.952c0.622-0.812,2.083-3.016,2.083-3.016c-0.089-0.007-0.172-0.013-0.422-0.013c-1.131,0-2.548-0.007-4.222,0.305c-0.178,0.034-0.858,0.18-0.993,0.235c-0.246,0.1-1.65,2.264-2.742,3.507c-1.442,1.608-3.563,3.445-6.778,4.571c-7.127,2.506-14.769,2.828-15.813,2.978c-0.037,0.03-0.092,0.076-0.155,0.134c-0.148,0.141-0.359,0.343-0.606,0.592c-0.497,0.501-1.155,1.185-1.906,1.931c-1.5,1.499-3.349,3.248-5.056,4.369c-3.386,2.208-11.009,4.904-13.683,6.846c-2.563,1.825-5.837,6.62-8.917,10.092c-1.312,1.467-2.892,2.612-3.117,2.741c-0.222,0.126-0.433,0.26-0.708,0.247C12.055,89.772,11.599,89.603,11.464,88.993"/>
</g>
</svg>
